<?xml version="1.0" encoding="utf-8"?>
<!-- Generator: Adobe Illustrator 19.2.1, SVG Export Plug-In . SVG Version: 6.00 Build 0)  -->
<svg version="1.1" id="Layer_1" xmlns="http://www.w3.org/2000/svg" xmlns:xlink="http://www.w3.org/1999/xlink" x="0px" y="0px"
	 viewBox="0 0 336.9 26.9" style="enable-background:new 0 0 336.9 26.9;" xml:space="preserve">
<style type="text/css">
	.st0{fill:#29BBFF;}
	.st1{fill:none;stroke:#B0B7BC;stroke-miterlimit:10;}
	.st2{fill:#80BD41;}
	.st3{fill:#FFFFFF;}
	.st4{fill:#4F5862;}
	.st5{fill:#4E5961;}
</style>
<g>
	<path class="st0" d="M186.2,10.1h-3.7V7.6h10.2v2.5h-3.7v9.8h-2.7L186.2,10.1L186.2,10.1z"/>
	<path class="st0" d="M194.7,7.6h5.7c1.5,0,2.8,0.4,3.6,1.2c0.7,0.7,1,1.6,1,2.8l0,0c0,1-0.2,1.8-0.7,2.4c-0.5,0.7-1.1,1.1-1.9,1.4
		l3,4.4h-3.2l-2.6-4l0,0h-2.1v4h-2.7V7.6z M200.2,13.5c0.7,0,1.2-0.1,1.5-0.4c0.4-0.3,0.5-0.7,0.5-1.2l0,0c0-0.6-0.2-1-0.6-1.3
		s-0.9-0.4-1.5-0.4h-2.7v3.5L200.2,13.5L200.2,13.5z"/>
	<path class="st0" d="M207.6,7.6h2.7v12.3h-2.7V7.6z"/>
	<path class="st0" d="M217.6,7.5h2.5l5.3,12.4h-2.9l-1.1-2.8h-5.2l-1.1,2.8h-2.8L217.6,7.5z M220.5,14.8l-1.6-4l-1.6,4H220.5z"/>
	<path class="st0" d="M227.3,7.6h2.7v9.9h6.2v2.4h-8.9V7.6z"/>
	<path class="st0" d="M243.6,7.6h2.9l3.2,5.2l3.2-5.2h2.9v12.3h-2.6v-8.1l-3.5,5.3h-0.1l-3.5-5.2v8h-2.6L243.6,7.6L243.6,7.6z"/>
	<path class="st0" d="M263.1,7.5h2.5l5.3,12.4H268l-1.1-2.8h-5.2l-1.1,2.8h-2.8L263.1,7.5z M265.9,14.8l-1.6-4l-1.6,4H265.9z"/>
	<path class="st0" d="M272.8,7.6h2.5l5.8,7.6V7.6h2.6v12.3h-2.3l-5.9-7.9v7.9h-2.6L272.8,7.6L272.8,7.6z"/>
	<path class="st0" d="M290.9,7.5h2.5l5.3,12.4h-2.9l-1.1-2.8h-5.2l-1.1,2.8h-2.8L290.9,7.5z M293.8,14.8l-1.6-4l-1.6,4H293.8z"/>
	<path class="st0" d="M306.6,20.2c-1,0-1.8-0.1-2.6-0.4c-0.8-0.3-1.5-0.7-2.1-1.3c-0.6-0.6-1-1.2-1.3-2c-0.3-0.8-0.4-1.6-0.4-2.6
		l0,0c0-0.9,0.1-1.7,0.5-2.5c0.3-0.7,0.8-1.5,1.3-2.1c0.6-0.6,1.2-1,2.1-1.4s1.6-0.5,2.6-0.5c0.6,0,1,0.1,1.5,0.1
		c0.4,0.1,0.9,0.2,1.2,0.3c0.4,0.1,0.7,0.3,1.1,0.5c0.4,0.2,0.7,0.4,1,0.7l-1.7,2.1c-0.2-0.2-0.4-0.4-0.7-0.5
		c-0.2-0.1-0.5-0.3-0.7-0.4c-0.2-0.1-0.5-0.2-0.8-0.2s-0.6-0.1-1-0.1c-0.5,0-1,0.1-1.4,0.3c-0.4,0.2-0.8,0.5-1.1,0.8
		c-0.3,0.4-0.6,0.7-0.7,1.2c-0.1,0.4-0.3,1-0.3,1.5l0,0c0,0.6,0.1,1.1,0.3,1.5c0.1,0.4,0.4,0.9,0.8,1.2c0.4,0.4,0.7,0.7,1.2,0.8
		c0.4,0.2,1,0.3,1.5,0.3c1,0,1.8-0.2,2.6-0.7v-1.8h-2.7v-2.4h5.4v5.4c-0.7,0.5-1.4,1-2.3,1.4C308.9,19.9,307.7,20.2,306.6,20.2z"/>
	<path class="st0" d="M314.4,7.6h9.3V10h-6.6v2.5h5.8v2.4h-5.8v2.6h6.7v2.4h-9.4L314.4,7.6L314.4,7.6z"/>
	<path class="st0" d="M326.3,7.6h5.7c1.5,0,2.8,0.4,3.6,1.2c0.7,0.7,1,1.6,1,2.8l0,0c0,1-0.2,1.8-0.7,2.4c-0.5,0.6-1.1,1.1-1.9,1.4
		l3,4.4h-3.2l-2.6-4l0,0H329v4h-2.7V7.6z M331.7,13.5c0.7,0,1.2-0.1,1.5-0.4s0.5-0.7,0.5-1.2l0,0c0-0.6-0.2-1-0.6-1.3
		s-0.9-0.4-1.5-0.4h-2.7v3.5L331.7,13.5L331.7,13.5z"/>
</g>
<line class="st1" x1="170.4" y1="22.8" x2="170.4" y2="4.8"/>
<g>
	<g>
		<circle class="st2" cx="13.5" cy="13.5" r="13.5"/>
	</g>
	<path class="st3" d="M7.3,15.3c-1,0-1.8-0.8-1.8-1.8s0.8-1.8,1.8-1.8s1.8,0.8,1.8,1.8C9.1,14.5,8.3,15.3,7.3,15.3z M7.3,12.5
		c-0.6,0-1.1,0.5-1.1,1.1c0,0.6,0.5,1.1,1.1,1.1s1.1-0.5,1.1-1.1C8.3,12.9,7.8,12.5,7.3,12.5z"/>
	<path class="st3" d="M15.1,9.7c-1,0-1.8-0.8-1.8-1.8S14.1,6,15.1,6s1.8,0.8,1.8,1.8S16.1,9.7,15.1,9.7z M15.1,6.8
		c-0.6,0-1.1,0.5-1.1,1.1s0.5,1.1,1.1,1.1c0.6,0,1.1-0.5,1.1-1.1C16.2,7.3,15.7,6.8,15.1,6.8z"/>
	<path class="st3" d="M15.1,21c-1,0-1.8-0.8-1.8-1.8c0-1,0.8-1.8,1.8-1.8s1.8,0.8,1.8,1.8C16.9,20.2,16.1,21,15.1,21z M15.1,18.1
		c-0.6,0-1.1,0.5-1.1,1.1c0,0.6,0.5,1.1,1.1,1.1c0.6,0,1.1-0.5,1.1-1.1C16.2,18.6,15.7,18.1,15.1,18.1z"/>
	<path class="st3" d="M19.7,15.3c-1,0-1.8-0.8-1.8-1.8s0.8-1.8,1.8-1.8c1,0,1.8,0.8,1.8,1.8C21.6,14.5,20.7,15.3,19.7,15.3z
		 M19.7,12.5c-0.6,0-1.1,0.5-1.1,1.1c0,0.6,0.5,1.1,1.1,1.1c0.6,0,1.1-0.5,1.1-1.1C20.8,12.9,20.3,12.5,19.7,12.5z"/>
	<rect x="16.2" y="15.9" transform="matrix(0.6495 -0.7603 0.7603 0.6495 -6.2693 18.9094)" class="st3" width="2.4" height="0.7"/>
	<rect x="17.2" y="9.4" transform="matrix(0.7602 -0.6497 0.6497 0.7602 -2.6941 13.9092)" class="st3" width="0.7" height="2.4"/>
</g>
<g>
	<path class="st4" d="M36.2,6.8h6.4c1.6,0,2.8,0.4,3.6,1.2c0.7,0.7,0.9,1.4,0.9,2.4l0,0c0,0.4-0.1,0.7-0.2,1.1
		c-0.1,0.3-0.2,0.6-0.4,0.8c-0.2,0.2-0.3,0.5-0.6,0.7s-0.4,0.3-0.7,0.5c0.8,0.3,1.4,0.7,1.9,1.2c0.5,0.5,0.7,1.2,0.7,2.1l0,0
		c0,0.7-0.1,1.1-0.3,1.6c-0.2,0.5-0.6,0.9-1.1,1.1c-0.5,0.3-1,0.6-1.6,0.7c-0.7,0.2-1.3,0.2-2.1,0.2h-6.5L36.2,6.8L36.2,6.8z
		 M41.9,12.3c0.7,0,1.2-0.1,1.6-0.3c0.4-0.2,0.6-0.6,0.6-1.1l0,0c0-0.5-0.2-0.8-0.5-1.1c-0.3-0.2-0.8-0.3-1.5-0.3h-2.9v2.9
		L41.9,12.3L41.9,12.3z M42.7,17.9c0.7,0,1.2-0.1,1.6-0.3c0.3-0.2,0.6-0.7,0.6-1.1l0,0c0-0.5-0.2-0.8-0.5-1.1
		c-0.3-0.2-0.9-0.4-1.7-0.4h-3.5v3L42.7,17.9L42.7,17.9z"/>
	<path class="st4" d="M50.5,6.8h3v13.7h-3V6.8z"/>
	<path class="st4" d="M63.6,20.7c-1.1,0-2-0.2-2.9-0.6c-0.9-0.4-1.6-0.9-2.3-1.5c-0.7-0.7-1.1-1.4-1.5-2.2c-0.3-0.8-0.6-1.8-0.6-2.8
		l0,0c0-1,0.2-1.9,0.6-2.8c0.3-0.8,0.9-1.6,1.6-2.3c0.7-0.7,1.4-1.1,2.3-1.6c0.9-0.4,1.9-0.6,2.9-0.6c1.1,0,2,0.2,2.9,0.6
		c0.9,0.4,1.6,0.9,2.3,1.5c0.7,0.7,1.1,1.4,1.5,2.2s0.6,1.8,0.6,2.8l0,0c0,1-0.2,1.9-0.6,2.8c-0.3,0.8-0.9,1.6-1.6,2.3
		c-0.7,0.7-1.4,1.1-2.3,1.6C65.6,20.6,64.7,20.7,63.6,20.7z M63.6,17.9c0.6,0,1.1-0.1,1.6-0.3c0.5-0.2,1-0.5,1.3-0.9
		c0.3-0.4,0.7-0.8,0.8-1.4c0.2-0.5,0.3-1.1,0.3-1.6l0,0c0-0.6-0.1-1.1-0.3-1.6c-0.2-0.5-0.5-1-0.9-1.4c-0.4-0.4-0.8-0.7-1.3-0.9
		c-0.5-0.2-1.1-0.3-1.6-0.3c-0.7,0-1.1,0.1-1.7,0.3c-0.6,0.2-0.9,0.5-1.3,0.9c-0.3,0.4-0.7,0.8-0.8,1.4c-0.2,0.5-0.3,1.1-0.3,1.6
		l0,0c0,0.6,0.1,1.1,0.3,1.6c0.2,0.5,0.5,1,0.9,1.4s0.8,0.7,1.3,0.9C62.5,17.8,63,17.9,63.6,17.9z"/>
	<path class="st4" d="M80,20.7c-1,0-2-0.2-2.8-0.6c-0.9-0.3-1.6-0.9-2.2-1.5c-0.7-0.7-1.1-1.4-1.5-2.2c-0.3-0.8-0.5-1.8-0.5-2.8l0,0
		c0-1,0.2-1.9,0.5-2.8c0.3-0.8,0.8-1.6,1.5-2.3c0.6-0.7,1.3-1.2,2.2-1.6c0.9-0.4,1.9-0.6,2.9-0.6c0.7,0,1.2,0.1,1.7,0.2
		s1,0.2,1.5,0.4c0.4,0.2,0.8,0.4,1.2,0.7c0.3,0.2,0.7,0.6,1,0.9l-2,2.2C83,10.3,82.5,9.9,82,9.7c-0.6-0.2-1.1-0.4-1.9-0.4
		c-0.6,0-1.1,0.1-1.6,0.3c-0.5,0.2-0.9,0.5-1.2,0.9c-0.3,0.4-0.7,0.8-0.8,1.4c-0.2,0.5-0.3,1.1-0.3,1.6l0,0c0,0.6,0.1,1.1,0.3,1.6
		c0.2,0.5,0.5,1,0.8,1.4c0.3,0.4,0.7,0.7,1.2,0.9c0.5,0.2,1.1,0.3,1.6,0.3c0.8,0,1.5-0.2,2-0.4c0.5-0.2,1.1-0.7,1.6-1.1l2,2
		c-0.3,0.4-0.7,0.7-1.1,1c-0.4,0.3-0.8,0.6-1.2,0.7c-0.5,0.2-1,0.4-1.5,0.5C81.4,20.5,80.7,20.7,80,20.7z"/>
	<path class="st4" d="M88,6.8h3v11h6.9v2.7H88V6.8z"/>
	<path class="st4" d="M100.3,6.8h3v13.7h-3V6.8z"/>
	<path class="st4" d="M106.8,6.8h2.8l6.4,8.4V6.8h2.9v13.7h-2.5l-6.6-8.7v8.7h-2.9L106.8,6.8L106.8,6.8z"/>
	<path class="st4" d="M122.4,6.8h3v13.7h-3V6.8z"/>
	<path class="st4" d="M135.3,20.7c-1,0-2-0.2-2.8-0.6c-0.9-0.3-1.6-0.9-2.2-1.5c-0.7-0.7-1.1-1.4-1.5-2.2c-0.3-0.8-0.5-1.8-0.5-2.8
		l0,0c0-1,0.2-1.9,0.5-2.8c0.3-0.8,0.8-1.6,1.5-2.3s1.4-1.1,2.3-1.6c0.9-0.4,1.9-0.6,2.9-0.6c0.7,0,1.2,0.1,1.7,0.2
		c0.5,0.1,1,0.2,1.5,0.4c0.4,0.2,0.8,0.4,1.2,0.7c0.3,0.2,0.7,0.6,1,0.9l-2,2.2c-0.6-0.5-1.1-0.9-1.6-1.1c-0.6-0.2-1.1-0.4-1.9-0.4
		c-0.6,0-1.1,0.1-1.6,0.3s-0.9,0.5-1.2,0.9c-0.3,0.4-0.7,0.8-0.8,1.4c-0.2,0.5-0.3,1.1-0.3,1.6l0,0c0,0.6,0.1,1.1,0.3,1.6
		c0.2,0.5,0.5,1,0.8,1.4c0.3,0.4,0.7,0.7,1.2,0.9c0.5,0.2,1.1,0.3,1.6,0.3c0.8,0,1.5-0.2,2-0.4s1.1-0.7,1.6-1.1l2,2
		c-0.3,0.4-0.7,0.7-1.1,1c-0.4,0.3-0.8,0.6-1.2,0.7c-0.5,0.2-1,0.4-1.5,0.5C136.8,20.5,135.9,20.7,135.3,20.7z"/>
	<path class="st4" d="M148,6.7h2.8l5.9,13.8h-3.2l-1.2-3.1h-5.8l-1.2,3.1h-3.1L148,6.7z M151.2,14.8l-1.8-4.4l-1.8,4.4H151.2z"/>
</g>
<g>
	<path class="st5" d="M159.6,4.2c-1.6,0-2.9,1.3-2.9,2.9s1.3,2.9,2.9,2.9s2.9-1.3,2.9-2.9S161.2,4.2,159.6,4.2z M159.6,9.4
		c-1.3,0-2.4-1.1-2.4-2.4s1.1-2.4,2.4-2.4S162,5.7,162,7S160.9,9.4,159.6,9.4z"/>
	<path class="st5" d="M158.6,5.6h1.2c0.3,0,0.6,0.1,0.8,0.2c0.2,0.2,0.2,0.3,0.2,0.7l0,0c0,0.2-0.1,0.4-0.2,0.6s-0.2,0.2-0.4,0.3
		l0.7,1h-0.7l-0.7-1l0,0h-0.5v0.9h-0.6V5.6z M159.8,6.9c0.2,0,0.2,0,0.3-0.1c0.1-0.1,0.1-0.2,0.1-0.2l0,0c0-0.2-0.1-0.2-0.2-0.3
		c-0.1-0.1-0.2-0.1-0.3-0.1h-0.6v0.7C159.1,6.9,159.8,6.9,159.8,6.9z"/>
</g>
</svg>
